<?xml version="1.0" encoding="UTF-8"?>
<svg id="Ebene_1" data-name="Ebene 1" xmlns="http://www.w3.org/2000/svg" viewBox="0 0 1826.99 613.25">
  <defs>
    <style>
      .cls-1 {
        fill: #012b50;
      }

      .cls-2 {
        fill: #eeab00;
      }
    </style>
  </defs>
  <g>
    <path class="cls-2" d="M1339.99,393.38c-26.28-54.63-26.28-118.72-.06-173.34,4.23-8.82,2.21-19.35-5.13-25.82l-14.97-13.19-32.63,50.97c-1.41,2.2-3.04,4.23-4.89,6.08l-68.57,68.57,67.93,67.93c1.84,1.84,3.48,3.88,4.89,6.08l33.29,52,15.15-13.57c7.23-6.48,9.21-16.94,5-25.7Z"/>
    <circle class="cls-2" cx="1520.37" cy="306.63" r="129.15"/>
    <path class="cls-2" d="M1607.12,487c-54.63,26.28-118.72,26.28-173.34.06-8.82-4.23-19.35-2.21-25.82,5.13l-13.19,14.97,50.97,32.63c2.2,1.41,4.23,3.04,6.08,4.89l68.57,68.57,67.93-67.93c1.84-1.84,3.88-3.48,6.08-4.89l52-33.29-13.57-15.15c-6.48-7.23-16.94-9.21-25.7-5Z"/>
    <path class="cls-2" d="M1700.74,219.88c26.28,54.63,26.28,118.72.06,173.34-4.23,8.82-2.21,19.35,5.13,25.82l14.97,13.19,32.63-50.97c1.41-2.2,3.04-4.23,4.89-6.08l68.57-68.57-67.93-67.93c-1.84-1.84-3.48-3.88-4.89-6.08l-33.29-52-15.15,13.57c-7.23,6.48-9.21,16.94-5,25.7Z"/>
    <path class="cls-2" d="M1433.62,126.25c54.63-26.28,118.72-26.28,173.34-.06,8.82,4.23,19.35,2.21,25.82-5.13l13.19-14.97-50.97-32.63c-2.2-1.41-4.23-3.04-6.08-4.89L1520.35,0l-67.93,67.93c-1.84,1.84-3.88,3.48-6.08,4.89l-52,33.29,13.57,15.15c6.48,7.23,16.94,9.21,25.7,5Z"/>
  </g>
  <g>
    <path class="cls-1" d="M748.42,121.48v-.03l-34.66-54.25c-4.69-7.34-12.8-11.78-21.51-11.78h-206.94c-14.1,0-25.52,11.43-25.52,25.52v451.57c0,14.1,11.43,25.52,25.52,25.52h263.11v-66.05h-218.98v-166.58h195.3v-66.05h-195.3V121.48h218.98Z"/>
    <path class="cls-1" d="M1175.33,558.04h-83.28l-175.8-275h70.95c4.06,0,8.04-.26,11.89-.74,41.91-5.18,71.41-37.72,71.41-81.11,0-45.97-35.2-79.71-83.3-79.71h-114.88l.71,436.56h-69.65V80.95c0-14.1,11.43-25.52,25.52-25.52h159.74c83.99,0,151.5,63.19,151.5,145.76,0,71.72-39.94,124.14-102.27,141.83l137.44,215.03Z"/>
    <g>
      <path class="cls-1" d="M428.49,55.22l-133.81,209.41-30.34-47.48c-5.36-8.38-5.35-19.11,0-27.49l78.45-122.67c4.69-7.33,12.8-11.77,21.5-11.77h64.2Z"/>
      <path class="cls-1" d="M249.07,326.58v231.25h-44.13c-14.1,0-25.52-11.43-25.52-25.52v-196.34L0,55.22h80.42l164.63,257.62c2.62,4.1,4.02,8.87,4.02,13.74Z"/>
    </g>
  </g>
</svg>